<svg xmlns="http://www.w3.org/2000/svg" viewBox="0 0 128 128" role="img" aria-label="Computer organization logo">
  <rect x="22" y="22" width="84" height="84" rx="14" fill="#3f51b5"/>
  <rect x="40" y="40" width="48" height="48" rx="6" fill="#ffffff"/>
  <path d="M53 54h22v20H53z" fill="#3f51b5"/>
  <g stroke="#3f51b5" stroke-width="6" stroke-linecap="round">
    <path d="M38 10v12M56 10v12M74 10v12M92 10v12"/>
    <path d="M38 106v12M56 106v12M74 106v12M92 106v12"/>
    <path d="M10 38h12M10 56h12M10 74h12M10 92h12"/>
    <path d="M106 38h12M106 56h12M106 74h12M106 92h12"/>
  </g>
</svg>
